<svg width="36" height="35" viewBox="0 0 36 35" fill="none" xmlns="http://www.w3.org/2000/svg">
<g id="add_user">
<g id="Group">
<path id="Vector" opacity="0.97" fill-rule="evenodd" clip-rule="evenodd" d="M14.279 0C15.1281 0 15.9772 0 16.8263 0C21.8415 0.806759 24.8649 3.42721 25.8964 7.86135C26.3601 11.8129 24.752 14.9004 21.0719 17.1241C18.1777 18.5899 15.1415 18.8633 11.9632 17.9444C7.93846 16.4753 5.66127 13.8207 5.13166 9.9805C4.95861 6.03622 6.77262 3.06258 10.5737 1.05957C11.7501 0.518569 12.9851 0.165378 14.279 0ZM15.514 2.73438C19.2129 2.96465 21.5929 4.65086 22.6543 7.79299C23.248 11.2192 21.7943 13.6916 18.293 15.21C15.0453 16.2068 12.2534 15.5801 9.91759 13.3301C7.70472 10.5957 7.70472 7.86135 9.91759 5.12697C11.414 3.63828 13.2795 2.84076 15.514 2.73438Z" fill="#6B3783"/>
</g>
<g id="Group_2">
<path id="Vector_2" opacity="0.972" fill-rule="evenodd" clip-rule="evenodd" d="M2.5458 34.9998C2.2113 34.9998 1.8768 34.9998 1.5423 34.9998C1.02436 34.8027 0.676998 34.4609 0.500204 33.9744C0.477092 29.6063 2.41977 26.1086 6.32823 23.4812C9.14205 21.7444 12.2683 20.981 15.7071 21.1912C17.8224 21.0422 19.868 21.3043 21.8439 21.9773C22.4577 22.3767 22.6763 22.9123 22.5 23.5838C22.2404 24.2236 21.7259 24.5426 20.9562 24.5408C20.0285 24.3326 19.0893 24.1618 18.1387 24.0281C16.0683 23.849 14.0099 23.9174 11.9633 24.2332C7.36114 25.4149 4.62079 28.0923 3.74228 32.2654C3.68423 32.9071 3.60704 33.5451 3.51071 34.1795C3.29696 34.5627 2.97533 34.8361 2.5458 34.9998Z" fill="#6B3783"/>
</g>
<g id="Group_3">
<path id="Vector_3" opacity="0.981" fill-rule="evenodd" clip-rule="evenodd" d="M28.2509 35.0001C27.9165 35.0001 27.5819 35.0001 27.2474 35.0001C26.7295 34.803 26.3821 34.4612 26.2053 33.9747C26.1667 32.4938 26.1539 31.0126 26.1667 29.5313C24.4683 29.5428 22.77 29.5313 21.072 29.4972C20.0018 29.0236 19.7316 28.3059 20.2615 27.3438C20.4732 27.0966 20.7434 26.9257 21.072 26.8311C22.77 26.797 24.4683 26.7855 26.1667 26.797C26.1539 25.3157 26.1667 23.8345 26.2053 22.3536C26.5556 21.4982 27.2374 21.1678 28.2509 21.3624C28.7836 21.5379 29.131 21.8684 29.293 22.3536C29.3316 23.8345 29.3445 25.3157 29.3316 26.797C31.0301 26.7855 32.7283 26.797 34.4263 26.8311C35.4966 27.3047 35.7668 28.0224 35.2368 28.9845C35.0252 29.2316 34.755 29.4025 34.4263 29.4972C32.7283 29.5313 31.0301 29.5428 29.3316 29.5313C29.3445 31.0126 29.3316 32.4938 29.293 33.9747C29.1163 34.4612 28.7689 34.803 28.2509 35.0001Z" fill="#6B3783"/>
</g>
</g>
</svg>
