<svg width="36" height="35" viewBox="0 0 36 35" fill="none" xmlns="http://www.w3.org/2000/svg">
<g id="block_user">
<g id="Group">
<path id="Vector" opacity="0.964" fill-rule="evenodd" clip-rule="evenodd" d="M16.3936 2.1533C19.7882 1.88521 22.3745 3.18403 24.1524 6.04978C25.474 8.55632 25.474 11.0628 24.1524 13.5693C22.3759 16.4457 19.7897 17.7331 16.3936 17.4316C12.6908 16.7366 10.492 14.5378 9.79696 10.8349C9.49584 7.43816 10.7833 4.85191 13.6593 3.07615C14.5349 2.63618 15.4464 2.32856 16.3936 2.1533ZM16.5987 4.40916C19.317 4.21234 21.2653 5.32888 22.4434 7.75877C23.3541 10.5082 22.6363 12.7299 20.2901 14.4238C17.9657 15.6725 15.7782 15.4674 13.7276 13.8086C12.0374 12.0718 11.5931 10.0552 12.3946 7.75877C13.2218 5.91712 14.6232 4.80059 16.5987 4.40916Z" fill="#6B3783"/>
</g>
<g id="Group_2">
<path id="Vector_2" opacity="0.982" fill-rule="evenodd" clip-rule="evenodd" d="M10.7881 19.6533C13.3175 19.6419 15.8468 19.6533 18.376 19.6875C18.99 19.9933 19.2065 20.4832 19.0254 21.1572C18.9001 21.4649 18.6836 21.6813 18.376 21.8067C15.9139 21.8134 13.4529 21.859 10.9932 21.9434C8.53462 22.3229 6.65473 23.5648 5.35352 25.669C4.50325 27.2021 4.17284 28.8427 4.36231 30.5908C9.03358 30.5794 13.7048 30.5908 18.376 30.625C18.99 30.9308 19.2065 31.4207 19.0254 32.0947C18.9001 32.4024 18.6836 32.6188 18.376 32.7442C13.1807 32.7897 7.98535 32.7897 2.79004 32.7442C2.48242 32.6188 2.26595 32.4024 2.14063 32.0947C2.09505 30.8415 2.09505 29.5882 2.14063 28.335C2.74906 24.3546 4.92517 21.6317 8.66895 20.166C9.37134 19.9391 10.0777 19.7682 10.7881 19.6533Z" fill="#6B3783"/>
</g>
<g id="Group_3">
<path id="Vector_3" opacity="0.966" fill-rule="evenodd" clip-rule="evenodd" d="M25.7589 19.6533C29.1847 19.4038 31.6798 20.7938 33.2443 23.8232C34.3026 26.4842 33.9836 28.9679 32.2872 31.2744C29.9108 33.8537 27.0739 34.5259 23.7765 33.291C20.4605 31.5236 19.1275 28.7779 19.7775 25.0537C20.6845 22.0384 22.6784 20.2382 25.7589 19.6533ZM25.964 21.9092C27.149 21.7612 28.2427 22.0005 29.2452 22.6269C27.0235 24.8486 24.8019 27.0703 22.5802 29.292C21.7855 27.924 21.6488 26.4885 22.17 24.9853C22.9092 23.3012 24.1739 22.2758 25.964 21.9092ZM30.8175 24.2334C31.0942 24.5698 31.2879 24.9572 31.3985 25.3955C31.935 27.8662 31.1261 29.7689 28.9718 31.1035C27.3398 31.8894 25.7448 31.821 24.1866 30.8984C26.4107 28.6858 28.621 26.4641 30.8175 24.2334Z" fill="#6B3783"/>
</g>
</g>
</svg>
