<svg width="32" height="32" viewBox="0 0 32 32" fill="none" xmlns="http://www.w3.org/2000/svg">
<g id="IV">
<path id="IV/Pass" d="M5.33333 10.6667V9.14286C5.33333 4.09339 10.109 0 16 0C21.891 0 26.6667 4.09339 26.6667 9.14286V10.6667H30.2222C31.2041 10.6667 32 11.3489 32 12.1905V30.4762C32 31.3178 31.2041 32 30.2222 32H1.77778C0.795947 32 0 31.3178 0 30.4762V12.1905C0 11.3489 0.795947 10.6667 1.77778 10.6667H5.33333ZM28.4444 13.7143H3.55556V28.9524H28.4444V13.7143ZM14.2222 22.4494C13.1595 21.9224 12.4444 20.9376 12.4444 19.8095C12.4444 18.1263 14.0363 16.7619 16 16.7619C17.9637 16.7619 19.5556 18.1263 19.5556 19.8095C19.5556 20.9376 18.8405 21.9224 17.7778 22.4494V25.9048H14.2222V22.4494ZM8.88889 10.6667H23.1111V9.14286C23.1111 5.77655 19.9273 3.04762 16 3.04762C12.0726 3.04762 8.88889 5.77655 8.88889 9.14286V10.6667Z" fill="#6B3783"/>
</g>
</svg>
