<svg width="39" height="39" viewBox="0 0 39 39" fill="none" xmlns="http://www.w3.org/2000/svg">
<g id="ping-pong 1">
<g id="Group">
<path id="Vector" fill-rule="evenodd" clip-rule="evenodd" d="M22.6812 2.5C23.6251 2.5 24.5689 2.5 25.5128 2.5C31.8486 3.38214 35.4975 6.95962 36.4595 13.2324C36.7901 18.5109 35.0981 23.0339 31.3832 26.8018C29.8245 28.3485 28.0288 29.5561 25.9962 30.4248C23.8672 31.2551 21.6802 31.4602 19.4351 31.04C18.291 30.7121 17.1517 30.3726 16.0174 30.0216C15.8562 29.9717 15.6892 29.9405 15.5205 29.9386C13.8616 29.9196 12.4615 30.526 11.3201 31.7578C10.6403 32.5907 10.0417 33.4794 9.52442 34.4238C8.92298 35.3148 8.27596 36.1726 7.58334 36.9971C7.47438 37.1269 7.3408 37.2389 7.19319 37.322C6.97765 37.4434 6.73625 37.5 6.48887 37.5C6.38588 37.5 6.28289 37.5 6.1799 37.5C5.99325 37.5 5.80472 37.48 5.63488 37.4026C5.55545 37.3664 5.47778 37.3245 5.40185 37.2769C5.31677 37.2236 5.24114 37.1569 5.16977 37.0863C4.11222 36.0395 3.05467 34.9927 1.99712 33.946C1.85926 33.8095 1.73678 33.6558 1.66218 33.4767C1.36505 32.7636 1.4762 32.1037 1.99565 31.4972C2.06295 31.4187 2.14119 31.3501 2.22352 31.2875C3.4846 30.3281 4.80169 29.4482 6.17481 28.6475C7.77665 27.5788 8.71189 26.1073 8.98054 24.2327C8.99951 24.1003 9.0015 23.966 8.9872 23.833C8.95018 23.4887 8.89313 23.1479 8.81607 22.8104C8.78368 22.6686 8.731 22.532 8.6675 22.4012C7.34909 19.6837 7.08525 16.9124 7.87597 14.0872C8.07329 13.3822 7.92779 12.6264 7.54147 12.0045C6.52503 10.3683 6.35724 8.56731 7.03811 6.60156C8.48811 3.71357 10.8248 2.56285 14.0481 3.14941C14.5111 3.27941 14.9507 3.4517 15.367 3.66627C16.0533 4.02 16.8664 4.11486 17.5777 3.81466C19.2093 3.12605 20.9104 2.68784 22.6812 2.5ZM22.6812 3.73047C25.8956 3.43185 28.7963 4.21798 31.3832 6.08887C34.0071 8.39535 35.3193 11.3007 35.3199 14.8047C34.9818 20.569 32.4034 25.0465 27.5847 28.2373C26.4139 28.9664 25.1625 29.4853 23.8306 29.794C23.2203 29.9354 22.5902 29.7235 22.1419 29.2858C17.8309 25.0772 13.537 20.8472 9.25994 16.5959C8.94528 16.2832 8.77264 15.8463 8.84471 15.4086C8.9925 14.5107 10.0084 14.1853 10.8812 14.4425C12.7806 15.0023 14.619 14.6331 16.3963 13.335C18.2226 11.6311 18.8326 9.56891 18.2265 7.14844C17.9326 6.13257 18.1823 4.88625 19.1798 4.53487C20.3099 4.13676 21.477 3.86862 22.6812 3.73047ZM11.9762 4.20898C13.9516 4.0986 15.4826 4.85056 16.569 6.46484C17.6983 8.72473 17.3415 10.7186 15.4985 12.4463C14.2812 13.3527 12.9229 13.6489 11.4237 13.335C8.89556 12.5002 7.72872 10.7845 7.9232 8.18803C7.9307 8.08796 7.94769 7.98773 7.974 7.89089C8.52942 5.84654 9.86349 4.61924 11.9762 4.20898ZM8.97191 19.5215C8.82311 18.9439 9.49018 18.6269 9.91565 19.0449C13.1532 22.2259 16.3851 25.4154 19.6112 28.6137C20.1093 29.1075 19.7601 29.8795 19.0898 29.6729C18.4159 29.4647 17.7504 29.2328 17.0933 28.9775C16.997 28.9401 16.8979 28.909 16.7968 28.8881C14.2745 28.3661 12.1266 29.0492 10.3532 30.9375C10.1319 31.2163 9.91065 31.495 9.68936 31.7738C9.62554 31.8542 9.56811 31.9394 9.51691 32.0284C8.70612 33.4373 7.78693 34.7709 6.75931 36.029C6.6491 36.1639 6.49937 36.2738 6.32521 36.2693C6.1794 36.2655 6.05137 36.1815 5.9477 36.0789C4.96901 35.1102 3.99032 34.1415 3.01163 33.1728C2.88787 33.0503 2.75411 32.9153 2.74371 32.7415C2.73525 32.5999 2.79695 32.4657 2.92879 32.3389C3.32016 32.0427 3.71152 31.7464 4.10288 31.4502C5.28885 30.6924 6.46294 29.9176 7.62516 29.126C9.4095 27.6329 10.2728 25.7303 10.2151 23.418C10.1784 23.099 10.1219 22.7838 10.0457 22.4722C10.0215 22.3734 9.98726 22.2775 9.94706 22.1841C9.57288 21.3148 9.24783 20.4272 8.97191 19.5215Z" fill="#6B3783" stroke="#6B3783" stroke-linejoin="round"/>
</g>
<g id="Group_2">
<path id="Vector_2" opacity="0.925" fill-rule="evenodd" clip-rule="evenodd" d="M12.9668 5.50586C13.3038 5.47263 13.6254 5.52211 13.9316 5.6543C14.1436 5.88618 14.2054 6.15831 14.1172 6.47071C14.0261 6.63593 13.89 6.74726 13.709 6.80469C12.5763 6.83222 11.7475 7.33938 11.2227 8.32618C11.0989 8.82185 10.9753 9.31663 10.8516 9.81055C10.2413 10.1597 9.83313 9.99885 9.62695 9.32813C9.72618 7.94196 10.3446 6.85342 11.4824 6.06251C11.9558 5.79374 12.4506 5.60819 12.9668 5.50586Z" fill="#6B3783"/>
</g>
</g>
</svg>
