<svg width="35" height="36" viewBox="0 0 35 36" fill="none" xmlns="http://www.w3.org/2000/svg">
<path id="Vector" d="M30.8159 1.80792L30.8181 1.80695L33.548 1.64044L33.8354 1.23132C33.8355 1.23135 33.8355 1.23138 33.8356 1.23141C34.2277 1.50697 34.4436 1.90184 34.4966 2.38088L34.4968 2.38087L34.4978 2.3927C34.5047 2.47267 34.4928 2.55257 34.4878 2.5867C34.4803 2.63756 34.4691 2.6985 34.455 2.76787C34.4267 2.90747 34.3826 3.1024 34.3208 3.36102C34.1969 3.87944 33.9976 4.67138 33.6999 5.82553C33.1042 8.13482 32.1117 11.9057 30.5342 17.8642L30.5342 17.8643C29.4404 21.9945 28.4354 25.7681 27.6972 28.5213C27.3282 29.8979 27.0257 31.0198 26.8122 31.8039C26.7055 32.1958 26.6208 32.5042 26.5611 32.7181C26.5312 32.8248 26.5072 32.9095 26.4895 32.9698C26.4808 32.9996 26.4729 33.0259 26.4663 33.0468C26.4631 33.0569 26.4593 33.0689 26.4552 33.0806C26.4531 33.0864 26.4501 33.095 26.4462 33.1048C26.444 33.1105 26.435 33.1335 26.4205 33.1606L26.4206 33.1607L26.4147 33.1712C25.9726 33.9531 24.9922 34.0866 24.2955 33.5728C24.1845 33.4909 23.6145 33.0104 22.8175 32.3331C21.9933 31.6327 20.8959 30.6955 19.7244 29.6915L15.978 26.4867L14.4942 29.862C13.5564 32.0015 12.7216 33.9037 12.6169 34.1206C12.3712 34.6501 11.8943 34.9667 11.3779 34.9975C10.858 35.0286 10.3468 34.7664 10.0543 34.2528C9.97446 34.1156 9.94427 33.9715 9.92533 33.7915C9.90638 33.6115 9.89406 33.339 9.88439 32.9065C9.86492 32.035 9.85523 30.4457 9.83911 27.4857L9.83911 27.4855L9.80849 21.4887L5.72297 19.6654C5.72277 19.6653 5.72258 19.6652 5.72238 19.6651C4.51476 19.1293 3.39833 18.6267 2.57171 18.2474C2.15865 18.0579 1.81618 17.8983 1.57031 17.7805C1.4478 17.7218 1.34636 17.672 1.27112 17.6334C1.23391 17.6144 1.19927 17.596 1.17014 17.5796L1.16786 17.5783C1.15403 17.5706 1.10338 17.5423 1.05601 17.5027L1.056 17.5027C0.641981 17.1562 0.477281 16.6364 0.502537 16.1632C0.527794 15.69 0.746869 15.1907 1.19503 14.89L1.195 14.8899L1.20171 14.8856C1.23533 14.8638 1.27575 14.8446 1.28271 14.8413L1.28363 14.8409C1.30231 14.8318 1.32614 14.8206 1.35383 14.8078C1.40966 14.7818 1.48802 14.7461 1.58692 14.7013C1.78507 14.6116 2.07017 14.4837 2.43219 14.3221C3.15646 13.9989 4.19119 13.5395 5.45964 12.9782C7.99667 11.8553 11.47 10.3236 15.2675 8.65444C18.9575 7.02889 22.5066 5.46682 25.2903 4.24165C28.2366 2.94494 30.3253 2.02563 30.8159 1.80792ZM11.1114 18.5353C11.1321 18.5188 11.1555 18.5 11.1816 18.479C11.2972 18.3859 11.4622 18.2522 11.67 18.0834C12.0855 17.7458 12.67 17.2692 13.3671 16.6999C14.7614 15.5612 16.6053 14.0522 18.4473 12.5431C20.1565 11.1427 21.8639 9.74249 23.2087 8.63812C21.2648 9.49269 18.5983 10.6666 15.6702 11.9563L15.6697 11.9565C12.7244 13.25 10.0403 14.4302 8.08858 15.2889C7.18808 15.6851 6.44349 16.0128 5.90105 16.2516C6.47081 16.513 7.24293 16.8622 8.09662 17.2421C9.65194 17.9328 10.4504 18.2849 10.8814 18.4523C10.9818 18.4913 11.0561 18.5177 11.1114 18.5353ZM29.8494 8.87767C29.6191 9.1563 29.3662 9.46271 29.0943 9.79214C27.7923 11.3701 26.0586 13.4753 24.3243 15.5838C22.5899 17.6923 20.855 19.8039 19.5506 21.3949C18.8983 22.1904 18.3539 22.8555 17.971 23.3248C17.8335 23.4933 17.7171 23.6364 17.624 23.751C17.7833 23.8998 18.0256 24.1171 18.3864 24.4333C19.3068 25.2401 20.9669 26.6631 23.9033 29.169C24.0696 29.3106 24.2276 29.4409 24.3675 29.5529C24.4089 29.4009 24.4573 29.2223 24.5129 29.016C24.7339 28.197 25.068 26.9464 25.5301 25.2078C26.4385 21.7901 27.841 16.4886 29.8494 8.87767ZM17.3973 23.5258C17.3955 23.5233 17.395 23.5228 17.3964 23.5246C17.3966 23.525 17.397 23.5254 17.3973 23.5258ZM14.5195 22.6993C14.7806 22.3783 18.94 17.3128 21.8243 13.8041C21.2662 14.2618 20.6347 14.7794 19.9766 15.3188C18.8875 16.2115 17.7254 17.164 16.7022 18.0037C16.7022 18.0038 16.7021 18.0038 16.7021 18.0038L12.7748 21.229V24.8288V26.3497C12.9162 26.0289 13.0668 25.6857 13.2165 25.343C13.5686 24.5317 13.8255 23.9618 14.0235 23.5571C14.2184 23.1586 14.3693 22.8925 14.5124 22.7082L14.5123 22.7081L14.5195 22.6993Z" fill="#ADA5A5" stroke="black"/>
</svg>
